<svg width="1440" height="320" viewBox="0 0 1440 320" fill="none" xmlns="http://www.w3.org/2000/svg">
  <g opacity="0.4">
    <path d="M0 64L48 69.3C96 74.7 192 85.3 288 96C384 106.7 480 117.3 576 117.3C672 117.3 768 106.7 864 106.7C960 106.7 1056 117.3 1152 122.7C1248 128 1344 128 1392 128L1440 128L1440 320L1392 320C1344 320 1248 320 1152 320C1056 320 960 320 864 320C768 320 672 320 576 320C480 320 384 320 288 320C192 320 96 320 48 320L0 320Z" fill="white" fill-opacity="0.1"/>
    <path d="M1440 192L1392 170.7C1344 149.3 1248 106.7 1152 90.7C1056 74.7 960 85.3 864 90.7C768 96 672 96 576 112C480 128 384 160 288 176C192 192 96 192 48 192L0 192L0 320L48 320C96 320 192 320 288 320C384 320 480 320 576 320C672 320 768 320 864 320C960 320 1056 320 1152 320C1248 320 1344 320 1392 320L1440 320Z" fill="white" fill-opacity="0.1"/>
  </g>
  <path d="M193 19C193 24.5228 188.523 29 183 29C177.477 29 173 24.5228 173 19C173 13.4772 177.477 9 183 9C188.523 9 193 13.4772 193 19Z" fill="white" fill-opacity="0.3"/>
  <path d="M334 139C334 144.523 329.523 149 324 149C318.477 149 314 144.523 314 139C314 133.477 318.477 129 324 129C329.523 129 334 133.477 334 139Z" fill="white" fill-opacity="0.3"/>
  <path d="M554 39C554 44.5228 549.523 49 544 49C538.477 49 534 44.5228 534 39C534 33.4772 538.477 29 544 29C549.523 29 554 33.4772 554 39Z" fill="white" fill-opacity="0.3"/>
  <path d="M734 89C734 94.5228 729.523 99 724 99C718.477 99 714 94.5228 714 89C714 83.4772 718.477 79 724 79C729.523 79 734 83.4772 734 89Z" fill="white" fill-opacity="0.3"/>
  <path d="M904 19C904 24.5228 899.523 29 894 29C888.477 29 884 24.5228 884 19C884 13.4772 888.477 9 894 9C899.523 9 904 13.4772 904 19Z" fill="white" fill-opacity="0.3"/>
  <path d="M1104 89C1104 94.5228 1099.52 99 1094 99C1088.48 99 1084 94.5228 1084 89C1084 83.4772 1088.48 79 1094 79C1099.52 79 1104 83.4772 1104 89Z" fill="white" fill-opacity="0.3"/>
  <path d="M1334 49C1334 54.5228 1329.52 59 1324 59C1318.48 59 1314 54.5228 1314 49C1314 43.4772 1318.48 39 1324 39C1329.52 39 1334 43.4772 1334 49Z" fill="white" fill-opacity="0.3"/>
  <path d="M1114 159C1114 164.523 1109.52 169 1104 169C1098.48 169 1094 164.523 1094 159C1094 153.477 1098.48 149 1104 149C1109.52 149 1114 153.477 1114 159Z" fill="white" fill-opacity="0.3"/>
  <path d="M464 109C464 114.523 459.523 119 454 119C448.477 119 444 114.523 444 109C444 103.477 448.477 99 454 99C459.523 99 464 103.477 464 109Z" fill="white" fill-opacity="0.3"/>
</svg>
