<svg width="300" height="300" viewBox="0 0 300 300" fill="none" xmlns="http://www.w3.org/2000/svg">
  <path d="M226.5 81.5C256.5 111.5 267 152 258 188C249 224 220.5 255.5 182.5 267.5C144.5 279.5 97 272 65.5 245C34 218 18.5 171.5 32.5 136C46.5 100.5 90 76 134 63.5C178 51 196.5 51.5 226.5 81.5Z" fill="white" fill-opacity="0.15"/>
  <g opacity="0.8">
    <path d="M185.026 131.16C187.524 133.077 190.954 132.63 192.048 130.164C193.142 127.697 191.392 124.444 188.894 122.526C186.396 120.609 182.966 121.056 181.872 123.522C180.778 125.989 182.528 129.242 185.026 131.16Z" fill="white"/>
    <path d="M155.394 142.84C157.892 144.758 161.322 144.31 162.416 141.844C163.51 139.378 161.76 136.124 159.262 134.207C156.764 132.29 153.334 132.736 152.24 135.203C151.146 137.669 152.896 140.923 155.394 142.84Z" fill="white"/>
    <path d="M176.818 105.069C179.316 106.986 182.746 106.539 183.84 104.073C184.934 101.607 183.184 98.3533 180.686 96.4359C178.188 94.5186 174.758 94.9651 173.664 97.4314C172.57 99.8976 174.32 103.151 176.818 105.069Z" fill="white"/>
    <path d="M202.616 80.9529C205.114 82.8703 208.544 82.4238 209.638 79.9576C210.732 77.4913 208.982 74.2377 206.484 72.3203C203.986 70.403 200.556 70.8496 199.462 73.3158C198.368 75.782 200.118 79.0356 202.616 80.9529Z" fill="white"/>
    <path d="M209.946 158.162C212.444 160.079 215.874 159.633 216.968 157.166C218.062 154.7 216.312 151.447 213.814 149.529C211.316 147.612 207.886 148.058 206.792 150.525C205.698 152.991 207.448 156.244 209.946 158.162Z" fill="white"/>
    <path d="M220.118 116.146C222.616 118.063 226.046 117.617 227.14 115.15C228.234 112.684 226.484 109.431 223.986 107.513C221.488 105.596 218.058 106.043 216.964 108.509C215.87 110.975 218.62 114.229 220.118 116.146Z" fill="white"/>
    <path d="M136.05 120.978C138.548 122.895 141.978 122.448 143.072 119.982C144.166 117.516 142.416 114.262 139.918 112.345C137.42 110.427 133.99 110.874 132.896 113.34C131.802 115.807 133.552 119.06 136.05 120.978Z" fill="white"/>
    <path d="M117.05 141.571C119.548 143.488 122.978 143.041 124.072 140.575C125.166 138.109 123.416 134.855 120.918 132.938C118.42 131.02 114.99 131.467 113.896 133.933C112.802 136.4 114.552 139.653 117.05 141.571Z" fill="white"/>
  </g>
</svg>
